<svg width="144" height="150" viewBox="0 0 144 150" fill="none" xmlns="http://www.w3.org/2000/svg">
<g clip-path="url(#clip0_278_111)">
<path d="M19.1393 145.333L18.5242 146.382V149.891H17.3665V139.399H18.5242V144.464L21.3101 139.399H22.5041L19.8629 144.175L22.6126 149.891H21.4186L19.1393 145.333Z" fill="white"/>
<path d="M26.9543 139.399C28.5822 139.399 29.2336 140.195 29.2336 141.715V142.221C29.2336 143.343 28.9078 144.03 28.0035 144.32C29.0164 144.609 29.4144 145.405 29.4144 146.563V147.431C29.4144 149.023 28.6546 149.891 27.0265 149.891H24.6025V139.399H26.9543ZM26.6647 143.849C27.6055 143.849 28.0759 143.56 28.0759 142.439V141.823C28.0759 140.883 27.75 140.449 26.9181 140.449H25.7603V143.849H26.6647ZM27.0265 148.842C27.8948 148.842 28.2566 148.408 28.2566 147.431V146.49C28.2566 145.333 27.7862 144.935 26.7733 144.935H25.7603V148.842H27.0265Z" fill="white"/>
<path d="M32.7793 147.793L32.3813 149.891H31.2959L33.3221 139.399H35.0224L37.0486 149.891H35.8908L35.4928 147.793H32.7793ZM32.9603 146.78H35.312L34.118 140.702L32.9603 146.78Z" fill="white"/>
<path d="M41.3541 139.399C43.0184 139.399 43.7058 140.376 43.7058 141.968V143.234C43.7058 144.899 42.9098 145.767 41.2454 145.767H40.1963V149.891H39.0747V139.399H41.3541ZM41.2816 144.718C42.15 144.718 42.5842 144.32 42.5842 143.307V141.896C42.5842 140.919 42.2224 140.449 41.3903 140.449H40.2687V144.718H41.2816Z" fill="white"/>
<path d="M47.3598 149.891V140.449H45.406V139.399H50.4351V140.449H48.4813V149.891H47.3598Z" fill="white"/>
<path d="M53.6552 147.793L53.2572 149.891H52.1719L54.1978 139.399H55.8984L57.9245 149.891H56.7668L56.3688 147.793H53.6552ZM53.7998 146.78H56.1516L54.9576 140.702L53.7998 146.78Z" fill="white"/>
<path d="M62.1578 140.449L61.9043 147.286C61.8319 148.951 61.398 149.891 59.806 149.928H59.625V148.878C60.602 148.878 60.7828 148.372 60.7828 147.395L61.0722 139.435H65.3415V149.928H64.1837V140.485H62.1578V140.449Z" fill="white"/>
<path d="M71.094 141.932C71.094 140.34 71.89 139.291 73.4819 139.291C75.1101 139.291 75.9061 140.34 75.9061 141.932V147.359C75.9061 148.951 75.1101 150 73.4819 150C71.89 150 71.094 148.951 71.094 147.359V141.932ZM72.2156 147.431C72.2156 148.408 72.6136 148.951 73.4457 148.951C74.3141 148.951 74.6759 148.408 74.6759 147.431V141.896C74.6759 140.955 74.2779 140.376 73.4457 140.376C72.6136 140.376 72.2156 140.955 72.2156 141.896V147.431Z" fill="white"/>
<path d="M79.7414 149.891V140.449H77.7876V139.399H82.8526V140.449H80.8991V149.891H79.7414Z" fill="white"/>
<path d="M86.6155 145.333L86.0003 146.382V149.891H84.8425V139.399H86.0003V144.464L88.7862 139.399H89.9802L87.3391 144.175L90.0888 149.891H88.8949L86.6155 145.333Z" fill="white"/>
<path d="M94.3942 139.399C96.0585 139.399 96.7459 140.376 96.7459 141.968V143.234C96.7459 144.899 95.9499 145.767 94.2858 145.767H93.2364V149.891H92.0786V139.399H94.3942ZM94.322 144.718C95.1901 144.718 95.6243 144.32 95.6243 143.307V141.896C95.6243 140.919 95.2625 140.449 94.4304 140.449H93.3088V144.718H94.322Z" fill="white"/>
<path d="M101.015 143.524C102.68 143.524 103.476 144.392 103.476 146.056V147.323C103.476 148.914 102.752 149.891 101.124 149.891H98.8445V139.399H100.002V143.524H101.015ZM101.088 148.842C101.956 148.842 102.282 148.372 102.282 147.395V145.984C102.282 144.971 101.847 144.573 100.979 144.573H99.9298V148.806H101.088V148.842ZM105.574 139.399V149.891H104.416V139.399H105.574Z" fill="white"/>
<path d="M109.517 149.891V140.449H107.564V139.399H112.593V140.449H110.639V149.891H109.517Z" fill="white"/>
<path d="M117.368 145.043L115.813 149.891H114.583V139.399H115.632V147.25L116.572 144.356L118.237 139.435H119.539V149.928H118.49V141.57L117.368 145.043Z" fill="white"/>
<path d="M124.713 144.826L123.085 149.891H121.855V139.399H122.904V147.25L123.881 144.211L125.509 139.399H126.812V149.891H125.762V141.534L124.713 144.826ZM126.052 137.265C126.052 138.169 125.437 138.748 124.424 138.748C123.41 138.748 122.832 138.205 122.796 137.265H123.519C123.555 137.844 123.917 138.025 124.387 138.025C124.894 138.025 125.256 137.844 125.292 137.265H126.052Z" fill="white"/>
<path d="M58.6119 75.0359H46.9255V75.3255C49.1687 75.3255 50.1095 76.4107 50.2181 78.0388V125.832C49.9647 127.351 50.1819 128.184 46.9255 128.292V128.582H59.1906V128.292C56.1153 128.292 55.8259 126.447 55.8259 123.444C55.8259 123.372 55.7535 117.764 55.7535 117.764H58.6119C64.6539 117.764 67.5844 114.435 67.5844 108.285V84.4788C67.5844 78.3645 64.6177 75.0359 58.6119 75.0359ZM61.5424 111.65C61.5424 114.399 60.4932 115.268 58.5757 115.268H55.7173V77.3152H58.5757C60.4932 77.3152 61.5424 78.1836 61.5424 80.9333V111.65Z" fill="white"/>
<path d="M122.759 75.0359V75.3255C126.414 75.4702 125.979 76.5193 126.088 78.4007V125.217C125.979 127.098 126.414 128.184 122.759 128.292V128.582H135.459V128.292C131.84 128.147 132.238 127.134 132.13 125.289V77.5324H138.715C141.718 77.5324 143.382 79.3052 143.563 83.9724H143.852V77.5324V75.0359H122.759Z" fill="white"/>
<path d="M24.0959 75.0359V75.3255C27.7503 75.4702 27.3161 76.5193 27.4245 78.4007V125.217C27.3161 127.098 27.7503 128.184 24.0959 128.292V128.582H36.2524H44.6462V126.085V119.645H44.3569C44.1761 124.312 42.5117 126.085 39.5088 126.085H33.5027C33.5027 125.832 33.5027 125.579 33.4667 125.289V97.5757H37.772C39.364 97.7205 40.2686 98.2993 40.2686 100.977H40.5579V97.5757V97.5395V95.0793V95.0433V91.6424H40.2686C40.2686 94.3195 39.364 94.9348 37.772 95.0433H33.4667C33.4667 95.0433 33.5027 77.7495 33.5027 77.5324H39.5088C42.5117 77.5324 44.1761 79.3052 44.3569 83.9724H44.6462V77.5324V75.0359H24.0959Z" fill="white"/>
<path d="M12.8078 88.965H9.29831V77.5324H15.9193C18.9222 77.5324 20.5865 79.3052 20.7674 83.9724H21.0569V77.5324V75.0359H0V75.3255C3.22004 75.434 3.03915 76.3024 3.2924 77.7857V125.868C3.03915 127.351 3.25622 128.22 0 128.328V128.618H12.8078C18.8499 128.618 21.889 125.289 21.889 119.139V98.4802C21.889 92.2936 18.8499 88.965 12.8078 88.965ZM15.8831 122.467C15.8831 125.217 14.7253 126.085 12.8078 126.085H9.29831V91.4252H12.8078C14.7253 91.4252 15.8831 92.2936 15.8831 95.0433V122.467Z" fill="white"/>
<path d="M118.526 125.832L118.418 79.1245C118.418 76.7729 117.658 75.434 121.782 75.2895V75H97.3247V75.2895C100.762 75.2895 100.328 77.1345 100.328 80.1374C100.328 80.1736 100.328 80.2098 100.364 80.246V123.336C100.364 123.372 100.328 123.408 100.328 123.444C100.328 126.447 100.508 128.292 97.3247 128.292V128.582H121.819V128.292C118.562 128.184 118.78 127.352 118.526 125.832ZM105.972 95.0795V77.7136C106.189 76.411 107.057 75.3979 109.373 75.3979C111.724 75.3979 112.557 76.411 112.773 77.7136C112.737 83.1767 112.701 95.1157 112.665 95.1157H105.972V95.0795ZM112.773 126.013C112.52 127.243 111.363 128.256 109.373 128.256C107.383 128.256 106.333 127.388 106.044 126.302V97.576C106.044 97.576 112.773 97.5036 112.773 97.576V126.013Z" fill="white"/>
<path d="M96.1308 75.2895V75H83.4315H70.7322V75.2895C74.3865 75.434 73.9523 76.4833 74.0607 78.3648V125.181C73.9523 127.062 74.3865 128.148 70.7322 128.256V128.545H83.4315H96.1308V128.256C92.5126 128.111 92.9106 127.098 92.802 125.253V78.3286C92.9106 76.4833 92.5126 75.434 96.1308 75.2895ZM83.3953 75.2895C87.0494 75.434 86.6154 76.4833 86.7238 78.3648V90.5933L80.0306 96.4907V78.2924C80.1751 76.4833 79.7771 75.434 83.3953 75.2895ZM83.3953 128.292C79.7771 128.148 80.1751 127.135 80.0668 125.29V99.7829L86.76 93.8857V125.217C86.6514 127.098 87.0494 128.184 83.3953 128.292Z" fill="white"/>
<path d="M81.4778 25.5064C88.569 26.3024 91.536 30.3183 92.8021 32.1998C74.7846 31.7293 52.2082 36.9755 32.4536 53.6179C42.6926 42.6555 54.8493 35.2388 63.0621 31.2591C65.5948 30.0291 66.4268 28.2562 67.1144 26.5919C67.838 24.819 68.7061 22.1056 69.4297 19.9711C70.3705 17.2576 72.6498 15.7019 74.893 15.0145C77.4257 14.2185 108.541 5.17367 110.965 4.45007C113.606 3.65412 115.451 2.56874 116.392 0C116.211 3.21998 113.353 5.93343 110.82 7.01881C108.577 7.99567 92.2596 15.7019 85.7109 18.5962C82.0928 20.2243 81.2968 23.8421 81.4778 25.5064Z" fill="white"/>
<path d="M52.7508 34.4791C52.7508 34.4791 56.4773 32.236 62.5558 28.6541C65.6671 26.8452 65.3777 22.6846 61.0722 21.5992C52.8594 19.5008 35.0227 14.5442 31.1514 13.4588C29.3784 12.9885 28.7634 12.1563 28.7634 12.1563C28.7634 12.1563 29.5594 14.3271 32.5261 15.5572C38.2788 17.9451 50.1821 22.7207 51.7741 23.4805C54.0896 24.6021 55.175 25.8683 55.7537 27.8943C56.8394 31.7295 52.7508 34.4791 52.7508 34.4791Z" fill="white"/>
</g>
<defs>
<clipPath id="clip0_278_111">
<rect width="143.852" height="150" fill="white"/>
</clipPath>
</defs>
</svg>
