<svg width="268" height="64" viewBox="0 0 268 64" fill="none" xmlns="http://www.w3.org/2000/svg">
<g clip-path="url(#clip0_278_137)">
<path d="M66.1199 61.1119H67.2289V55.3138H70.7284V54.3298H66.1199V61.1119Z" fill="white"/>
<path d="M79.3629 58.6322C79.2929 58.9468 79.1793 59.2244 79.0212 59.4723C78.8671 59.7164 78.6578 59.9125 78.397 60.0605C78.1362 60.2085 77.8205 60.2824 77.4459 60.2824C77.064 60.2824 76.741 60.2122 76.4728 60.068C76.201 59.9236 75.9845 59.7313 75.8156 59.498C75.643 59.2614 75.5219 58.9876 75.441 58.6768C75.3638 58.366 75.3271 58.0441 75.3271 57.7108C75.3271 57.3965 75.3638 57.0895 75.4372 56.7822C75.5106 56.4751 75.6283 56.2013 75.7934 55.9607C75.9587 55.7204 76.1718 55.5278 76.4326 55.376C76.6931 55.2281 77.009 55.1541 77.3834 55.1541C77.7361 55.1541 78.0481 55.2246 78.3126 55.365C78.5771 55.5057 78.7936 55.6907 78.9625 55.9275C79.1351 56.1643 79.26 56.4343 79.3409 56.7341C79.4253 57.0376 79.4655 57.3447 79.4655 57.6593C79.4655 57.9922 79.4288 58.3179 79.3629 58.6322ZM79.8622 55.2394C79.6051 54.91 79.2857 54.651 78.9 54.4584C78.5147 54.2662 78.0593 54.17 77.5378 54.17C77.0715 54.17 76.6419 54.2551 76.2487 54.429C75.8596 54.5991 75.5731 54.8692 75.3895 55.2467H75.3638V54.3291H74.2585V63.6942H75.3638V60.2049H75.3895C75.5106 60.4045 75.6613 60.5749 75.8414 60.708C76.0174 60.8449 76.2048 60.9522 76.4068 61.0299C76.6052 61.1115 76.8032 61.1668 77.0053 61.2001C77.2036 61.237 77.3909 61.2557 77.5635 61.2557C78.0775 61.2557 78.5256 61.1631 78.911 60.9781C79.2967 60.7969 79.6199 60.5452 79.8769 60.2233C80.1302 59.9052 80.3212 59.5352 80.4461 59.1097C80.5745 58.6841 80.6369 58.229 80.6369 57.7405C80.6369 57.2596 80.571 56.8008 80.4424 56.3752C80.3103 55.9461 80.1192 55.5686 79.8622 55.2394Z" fill="white"/>
<path d="M86.7908 59.8762H86.7688L84.8003 54.3298H83.552L86.2215 61.0714L85.7625 62.211C85.6598 62.4143 85.5384 62.5661 85.3991 62.6698C85.2594 62.777 85.0796 62.8289 84.8518 62.8289C84.7417 62.8289 84.6278 62.8102 84.5214 62.777C84.4112 62.74 84.3048 62.7068 84.2019 62.6698V63.6946C84.323 63.7392 84.4517 63.7686 84.58 63.7872C84.7087 63.8021 84.8408 63.8132 84.9695 63.8132C85.2117 63.8132 85.4283 63.7797 85.6156 63.7133C85.7992 63.6466 85.9683 63.5429 86.1224 63.3987C86.273 63.2544 86.4126 63.0695 86.5373 62.8437C86.6659 62.6142 86.7908 62.3331 86.9229 62.0036L89.8532 54.3298H88.6818L86.7908 59.8762Z" fill="white"/>
<path d="M93.1323 61.1119H94.2376V55.3138H97.5205V61.1119H98.6258V54.3298H93.1323V61.1119Z" fill="white"/>
<path d="M102.893 61.1119H104.002V55.3138H107.281V61.1119H108.39V54.3298H102.893V61.1119Z" fill="white"/>
<path d="M116.564 58.7508C116.564 58.906 116.524 59.0762 116.446 59.2539C116.366 59.4315 116.244 59.5979 116.083 59.7534C115.918 59.9052 115.705 60.031 115.444 60.1345C115.183 60.2306 114.871 60.2824 114.507 60.2824C114.331 60.2824 114.166 60.2676 114.012 60.2306C113.854 60.1936 113.718 60.1382 113.601 60.0605C113.483 59.9827 113.387 59.8793 113.314 59.7534C113.241 59.6238 113.204 59.4723 113.204 59.2871C113.204 59.006 113.266 58.7878 113.391 58.6249C113.52 58.4621 113.681 58.3363 113.88 58.2512C114.082 58.1623 114.306 58.0994 114.559 58.0662C114.809 58.033 115.058 57.9957 115.308 57.9625C115.554 57.9255 115.789 57.8885 116.017 57.8442C116.241 57.7997 116.424 57.7222 116.564 57.6074V58.7508ZM117.713 60.1012C117.684 59.9792 117.669 59.7866 117.669 59.5204V56.0347C117.669 55.6388 117.596 55.3207 117.449 55.0766C117.302 54.8322 117.104 54.6399 116.861 54.5068C116.619 54.3699 116.347 54.281 116.05 54.2365C115.749 54.1922 115.448 54.17 115.143 54.17C114.761 54.17 114.405 54.2105 114.071 54.2883C113.736 54.3699 113.439 54.4954 113.178 54.6769C112.917 54.8546 112.708 55.0912 112.554 55.376C112.396 55.6647 112.312 56.0201 112.293 56.4381H113.398C113.424 55.9423 113.593 55.6018 113.905 55.4244C114.217 55.2467 114.61 55.1541 115.077 55.1541C115.253 55.1541 115.429 55.1689 115.605 55.1949C115.782 55.2208 115.943 55.2726 116.087 55.3504C116.23 55.4317 116.347 55.5427 116.439 55.6907C116.531 55.8424 116.575 56.0385 116.575 56.2826C116.575 56.4935 116.516 56.6528 116.395 56.76C116.27 56.871 116.105 56.9526 115.899 57.0117C115.69 57.0671 115.451 57.1116 115.176 57.141C114.904 57.1745 114.614 57.2188 114.309 57.278C114.023 57.3336 113.744 57.3965 113.472 57.4743C113.197 57.5556 112.954 57.6703 112.741 57.8218C112.528 57.9774 112.359 58.1772 112.227 58.4213C112.099 58.6657 112.032 58.98 112.032 59.3648C112.032 59.7054 112.091 59.9976 112.209 60.2382C112.326 60.4788 112.488 60.6748 112.69 60.8263C112.892 60.9819 113.13 61.0891 113.398 61.1558C113.667 61.2225 113.953 61.2557 114.258 61.2557C114.728 61.2557 115.161 61.1741 115.565 61.0116C115.969 60.8487 116.325 60.586 116.626 60.2195C116.626 60.586 116.711 60.8487 116.88 61.0116C117.049 61.1741 117.28 61.2557 117.566 61.2557C117.904 61.2557 118.169 61.1965 118.36 61.0856V60.2195C118.213 60.2603 118.099 60.2824 118.022 60.2824C117.845 60.2824 117.746 60.2233 117.713 60.1012Z" fill="white"/>
<path d="M133.875 54.3298H132.406L129.321 57.5709V54.3298H128.212V61.1119H129.321V58.5514L129.997 57.8855L132.81 61.1119H134.227L130.893 57.2676L133.875 54.3298Z" fill="white"/>
<path d="M141.979 58.821C141.873 59.1391 141.722 59.4056 141.527 59.6203C141.336 59.8347 141.112 60.0013 140.859 60.1123C140.602 60.2271 140.33 60.2824 140.044 60.2824C139.761 60.2824 139.489 60.2271 139.232 60.1123C138.975 60.0013 138.751 59.8347 138.56 59.6203C138.369 59.4056 138.222 59.1391 138.112 58.821C138.002 58.5029 137.951 58.1364 137.951 57.7257C137.951 57.315 138.002 56.9488 138.112 56.6304C138.222 56.3123 138.369 56.0422 138.56 55.8238C138.751 55.6056 138.975 55.439 139.232 55.3245C139.489 55.2097 139.761 55.1541 140.044 55.1541C140.33 55.1541 140.602 55.2097 140.859 55.3245C141.112 55.439 141.336 55.6056 141.527 55.8238C141.722 56.0422 141.873 56.3123 141.979 56.6304C142.085 56.9488 142.141 57.315 142.141 57.7257C142.141 58.1364 142.085 58.5029 141.979 58.821ZM142.479 55.2024C142.199 54.8803 141.858 54.6288 141.45 54.4474C141.043 54.2624 140.576 54.17 140.044 54.17C139.508 54.17 139.038 54.2624 138.634 54.4474C138.23 54.6288 137.888 54.8803 137.613 55.2024C137.334 55.5205 137.124 55.8978 136.985 56.3309C136.845 56.76 136.779 57.2261 136.779 57.7257C136.779 58.2253 136.845 58.6879 136.985 59.1169C137.124 59.5463 137.334 59.9201 137.613 60.2382C137.888 60.5563 138.23 60.808 138.634 60.9856C139.038 61.1631 139.508 61.2519 140.044 61.2519C140.576 61.2519 141.043 61.1631 141.45 60.9856C141.858 60.808 142.199 60.5563 142.479 60.2382C142.758 59.9201 142.967 59.5463 143.103 59.1169C143.246 58.6879 143.316 58.2253 143.316 57.7257C143.316 57.2261 143.246 56.76 143.103 56.3309C142.967 55.8978 142.758 55.5205 142.479 55.2024Z" fill="white"/>
<path d="M150.616 59.8244H150.59L148.545 54.3298H146.959V61.1084H148.064V55.7321L150.095 61.1084H151.112L153.143 55.7321V61.1084H154.248V54.3298H152.662L150.616 59.8244Z" fill="white"/>
<path d="M158.258 61.1119H159.364V55.3138H162.643V61.1119H163.752V54.3298H158.258V61.1119Z" fill="white"/>
<path d="M171.664 58.7508C171.664 58.906 171.623 59.0762 171.547 59.2539C171.469 59.4315 171.348 59.5979 171.183 59.7534C171.018 59.9052 170.805 60.031 170.544 60.1345C170.283 60.2306 169.971 60.2824 169.608 60.2824C169.435 60.2824 169.27 60.2676 169.112 60.2306C168.958 60.1936 168.822 60.1382 168.704 60.0605C168.587 59.9827 168.488 59.8793 168.418 59.7534C168.344 59.6238 168.307 59.4723 168.307 59.2871C168.307 59.006 168.366 58.7878 168.495 58.6249C168.62 58.4621 168.781 58.3363 168.983 58.2512C169.182 58.1623 169.409 58.0994 169.659 58.0662C169.912 58.033 170.158 57.9957 170.408 57.9625C170.654 57.9255 170.893 57.8885 171.117 57.8442C171.341 57.7997 171.524 57.7222 171.664 57.6074V58.7508ZM172.817 60.1012C172.784 59.9792 172.769 59.7866 172.769 59.5204V56.0347C172.769 55.6388 172.696 55.3207 172.549 55.0766C172.402 54.8322 172.207 54.6399 171.961 54.5068C171.719 54.3699 171.447 54.281 171.15 54.2365C170.852 54.1922 170.548 54.17 170.243 54.17C169.861 54.17 169.505 54.2105 169.17 54.2883C168.837 54.3699 168.539 54.4954 168.278 54.6769C168.018 54.8546 167.812 55.0912 167.654 55.376C167.496 55.6647 167.412 56.0201 167.393 56.4381H168.502C168.528 55.9423 168.697 55.6018 169.009 55.4244C169.321 55.2467 169.71 55.1541 170.18 55.1541C170.353 55.1541 170.529 55.1689 170.706 55.1949C170.885 55.2208 171.047 55.2726 171.187 55.3504C171.33 55.4317 171.447 55.5427 171.539 55.6907C171.631 55.8424 171.679 56.0385 171.679 56.2826C171.679 56.4935 171.616 56.6528 171.495 56.76C171.374 56.871 171.209 56.9526 170.999 57.0117C170.79 57.0671 170.551 57.1116 170.276 57.141C170.004 57.1745 169.718 57.2188 169.413 57.278C169.126 57.3336 168.847 57.3965 168.572 57.4743C168.3 57.5556 168.054 57.6703 167.845 57.8218C167.632 57.9774 167.459 58.1772 167.331 58.4213C167.198 58.6657 167.133 58.98 167.133 59.3648C167.133 59.7054 167.191 59.9976 167.309 60.2382C167.426 60.4788 167.588 60.6748 167.793 60.8263C167.996 60.9819 168.231 61.0891 168.502 61.1558C168.77 61.2225 169.057 61.2557 169.362 61.2557C169.828 61.2557 170.265 61.1741 170.669 61.0116C171.073 60.8487 171.425 60.586 171.73 60.2195C171.73 60.586 171.815 60.8487 171.983 61.0116C172.152 61.1741 172.38 61.2557 172.666 61.2557C173.004 61.2557 173.269 61.1965 173.459 61.0856V60.2195C173.313 60.2603 173.199 60.2824 173.122 60.2824C172.949 60.2824 172.846 60.2233 172.817 60.1012Z" fill="white"/>
<path d="M181.347 57.0308H177.936V54.3298H176.83V61.1119H177.936V57.9892H181.347V61.1119H182.456V54.3298H181.347V57.0308Z" fill="white"/>
<path d="M187.573 59.8651V54.3298H186.464V61.1084H187.885L191.061 55.5766V61.1084H192.167V54.3298H190.749L187.573 59.8651Z" fill="white"/>
<path d="M197.28 59.8651V54.3298H196.175V61.1084H197.593L200.769 55.5766V61.1084H201.878V54.3298H200.457L197.28 59.8651Z" fill="white"/>
<path d="M197.708 52.8706C197.877 53.0186 198.071 53.1334 198.299 53.2109C198.523 53.2924 198.766 53.3294 199.026 53.3294C199.287 53.3294 199.529 53.2886 199.757 53.2073C199.981 53.1223 200.176 53.0075 200.341 52.8595C200.506 52.7115 200.635 52.5263 200.734 52.3081C200.826 52.0899 200.873 51.8493 200.873 51.5865H199.951C199.951 51.8936 199.871 52.1304 199.709 52.3008C199.551 52.4709 199.316 52.556 199.015 52.556C198.406 52.556 198.093 52.2341 198.079 51.5865H197.154C197.154 51.8642 197.201 52.1121 197.3 52.3267C197.403 52.5411 197.535 52.7226 197.708 52.8706Z" fill="white"/>
<path d="M238.354 31.5806C238.181 28.11 238.141 25.4865 238.141 21.5829L238.163 11.5926L238.17 11.5778V8.54742L236.845 10.1681L234.866 12.5621V12.5917L222.145 28.1616V21.8715C222.145 17.9753 222.16 15.5998 222.366 12.1403C222.523 9.44656 223.379 9.61306 225.366 9.44656V8.89154H215.638V9.44656C217.555 9.61306 218.51 9.44656 218.638 12.1735C218.793 15.4222 218.862 18.201 218.862 21.8715V32.1282L218.84 32.1504V35.1697L222.13 31.1958L234.858 15.6331L234.84 21.5829C234.84 25.2608 234.862 28.2912 234.631 31.5436C234.436 34.2483 233.547 34.0855 231.608 34.2483V34.8257H241.361V34.2483C239.371 34.0855 238.483 34.2483 238.354 31.5806Z" fill="white"/>
<path d="M205.94 31.7808C204.897 23.9735 204.041 16.4289 203.395 8.48111H203.325C199.774 15.5261 196.12 22.2825 191.997 29.5052C187.476 21.9532 185.027 15.2708 181.439 8.48111H181.369C180.76 16.1403 179.838 23.9994 178.825 31.6363C178.472 34.2857 177.716 34.1191 175.707 34.2857V34.8517H183.521V34.2857C181.406 34.1191 180.675 34.2857 180.903 31.6363C181.318 26.8003 181.729 22.2085 182.376 17.2578C185.853 23.2186 187.943 29.2497 190.994 35.1404H191.064C194.112 29.1425 197.266 23.2186 200.633 17.1505C201.28 21.9902 201.772 26.7966 202.106 31.7438C202.275 34.2857 201.214 34.1191 199.381 34.2857V34.8517H209.167V34.2857C207.287 34.1191 206.274 34.2857 205.94 31.7808Z" fill="white"/>
<path d="M255.158 22.2456V21.9681C255.158 18.3013 255.15 15.5484 255.367 10.2647C256.079 10.1573 258.609 10.0797 259.109 10.0797C262.678 10.0797 264.863 12.0148 264.654 16.0257C264.533 18.3198 263.185 22.6674 257.434 22.3862L255.158 22.2456ZM257.434 23.5925C264.176 23.7405 268.447 20.3586 267.962 15.3819C267.566 11.3414 264.966 8.88083 259.612 8.88083C257.97 8.88083 250.38 8.88453 248.698 8.88083V9.43215C250.67 9.59863 251.658 9.43215 251.695 12.1887C251.739 15.43 251.875 18.3716 251.875 21.9681C251.875 25.6349 251.838 28.3396 251.658 31.5736C251.511 34.2376 250.604 34.0712 248.662 34.2376V34.8111H258.367V34.2376C256.428 34.0712 255.54 34.2376 255.37 31.5736C255.183 28.6652 255.161 26.5525 255.158 23.5925H257.434Z" fill="white"/>
<path d="M15.9554 9.65692C17.8612 9.82343 18.8233 9.65692 18.9592 12.3617C19.0987 15.1368 19.1391 17.553 19.1391 20.5093C16.9579 20.6536 15.4376 20.724 12.8231 20.724C10.069 20.724 8.94163 20.6536 6.51069 20.5093C6.51069 17.4826 6.56943 15.3181 6.72367 12.3247C6.86321 9.65692 7.76289 9.96031 9.72746 9.63472V9.0834H0V9.63472C1.93154 9.96031 2.85691 9.65692 3.0038 12.3617C3.18006 15.6067 3.22045 18.3818 3.22045 22.0597C3.22045 25.7339 3.13233 28.5052 3.0038 31.7541C2.89729 34.4588 1.92787 34.296 0 34.4588V35.0324H9.72746V34.4588C7.76289 34.296 6.89626 34.4588 6.72367 31.7911C6.50334 28.4018 6.51069 26.0225 6.51069 22.2373C8.79841 22.093 10.2379 22.0597 12.8157 22.0597C15.4964 22.0597 16.7045 22.093 19.1391 22.2373C19.1391 25.8412 19.0951 28.5422 18.9592 31.7541C18.8454 34.4588 17.8649 34.296 15.9554 34.4588V35.0324H25.6498V34.4588C23.7219 34.296 22.8039 34.4588 22.646 31.7911C22.4367 28.3313 22.4294 25.9522 22.4294 22.0597C22.4294 18.1672 22.4294 15.7843 22.646 12.3247C22.8113 9.65692 23.6338 9.82343 25.6498 9.65692V9.0834H15.9554V9.65692Z" fill="white"/>
<path d="M46.0269 33.9452C39.6448 33.9452 35.7009 27.7328 35.7009 21.2317C35.7009 14.8749 39.6081 10.0315 45.2374 10.0315C51.6196 10.0315 55.5267 16.244 55.5267 22.7488C55.5267 29.1055 51.6196 33.9452 46.0269 33.9452ZM45.5239 8.69574C37.8894 8.69574 32.1169 14.294 32.1169 21.9902C32.1169 29.5753 37.9593 35.2811 45.7405 35.2811C53.4117 35.2811 59.1474 29.6828 59.1474 21.9902C59.1474 14.4013 53.2683 8.69574 45.5239 8.69574Z" fill="white"/>
<path d="M76.2331 33.6975H74.0446C73.0457 33.6975 72.2634 32.9058 72.1828 31.1076C72.0874 28.9467 72.0397 26.2714 72.0397 21.5205C72.8254 21.4502 74.375 21.4132 74.8746 21.4132C78.5172 21.4132 81.3044 24.2734 81.3044 28.3029C81.3044 31.359 79.7326 33.6975 76.2331 33.6975ZM72.2195 10.3869C72.3591 10.3092 72.7188 10.2092 73.255 10.2092C76.3984 10.2092 78.6421 12.581 78.6421 15.3894C78.6421 18.0128 76.7618 20.2847 73.2623 20.2847C72.9466 20.2736 72.4802 20.2958 72.0397 20.2625C72.0397 17.2395 72.0764 15.1008 72.2195 10.3869ZM76.2183 20.6214C79.4316 20.0108 81.6826 18.0868 81.6826 14.9195C81.6826 10.7828 77.8598 8.98453 73.7543 8.98453H65.6133V9.55804C67.4274 9.72455 68.5511 9.55804 68.6135 12.2221C68.6905 15.5004 68.8263 18.59 68.8263 21.9719C68.8263 25.9643 68.8153 28.6618 68.6135 31.6847C68.4334 34.3635 67.3612 34.1971 65.65 34.3635V34.9222H75.5759C81.3007 34.9222 84.6571 32.447 84.6571 27.6924C84.6571 24.0218 80.647 21.0173 76.2183 20.6214Z" fill="white"/>
<path d="M111.501 9.55754C113.421 9.72402 114.38 9.55754 114.501 12.2808C114.648 15.5258 114.718 18.2972 114.718 21.9714C114.718 25.6419 114.699 28.417 114.501 31.6583C114.336 34.363 113.41 34.1967 111.501 34.363V34.9366H121.221V34.363C119.256 34.1967 118.349 34.363 118.217 31.6953C118.048 28.232 118.004 25.8565 118.004 21.9714C118.004 18.0789 118.07 15.7071 118.217 12.2438C118.334 9.55754 119.231 9.72402 121.221 9.55754V9.00623H111.501V9.55754Z" fill="white"/>
<path d="M102.106 33.7121C101.342 33.7121 101.342 33.6972 100.608 33.6972C98.5808 33.6972 98.3533 32.7316 98.1145 31.4143C98.0153 29.7973 97.9676 28.4392 97.9382 27.0075C97.9199 25.5459 97.9127 23.8068 97.9127 21.6275V21.5201C98.9408 21.4351 100.487 21.4277 100.747 21.4277C104.702 21.4092 107.174 24.2878 107.174 28.3172C107.174 31.3735 105.602 33.7121 102.106 33.7121ZM103.446 20.4952C101.761 20.1141 98.9702 20.1881 97.9127 20.2103C97.9199 17.2909 97.9529 15.1412 98.1255 12.2366C98.2871 9.55771 99.1538 9.72422 101.126 9.55771V8.99899H91.4863V9.55771C93.44 9.72422 94.358 9.55771 94.4866 12.2736C94.4901 12.3661 94.4938 12.4586 94.4976 12.5511C94.6627 15.7036 94.6994 18.7081 94.6994 21.9753C94.6994 25.631 94.6479 28.358 94.4866 31.5882C94.3432 34.3632 93.4216 34.1968 91.4863 34.3632V34.9367H101.449C107.174 34.9367 110.53 32.4613 110.53 27.7066C110.53 23.1223 106.516 21.1797 103.446 20.4952Z" fill="white"/>
<path d="M147.039 31.6288C146.936 33.575 145.963 34.3741 144.02 34.6925V34.9069H153.769V34.6925C151.805 34.3741 150.869 33.6082 150.762 31.662C150.549 28.195 150.549 25.5679 150.549 21.6643L150.571 11.674L150.582 11.6629V8.62881L149.257 10.2532L147.277 12.6435V12.6767L134.553 28.2468V21.9529C134.553 18.0604 134.553 15.6812 134.774 12.2216C134.88 10.2791 135.816 9.51685 137.777 9.19863V8.97663H128.05V9.19863C129.974 9.51685 130.944 10.3161 131.05 12.2586C131.237 15.5036 131.27 18.2824 131.27 21.9529V31.9432C131.27 32.0358 131.27 32.1208 131.27 32.2097L131.252 32.2356V35.2547L134.542 31.2772L147.266 15.7145L147.251 21.6643C147.251 25.3459 147.215 28.3727 147.039 31.6288Z" fill="white"/>
<path d="M138.319 3.68162C139.328 4.42904 140.614 4.80275 142.178 4.80275C143.496 4.80275 144.741 4.49563 145.916 3.88142C147.091 3.27089 148.035 2.42357 148.759 1.34684C148.821 1.26544 148.861 1.18773 148.88 1.11373C148.902 1.03973 148.902 0.984228 148.88 0.943527C148.861 0.899127 148.832 0.880626 148.788 0.880626C148.685 0.880626 148.553 0.973129 148.388 1.15814C147.132 2.69368 145.465 3.3449 143.632 3.32271C142.273 3.30791 141.616 3.1525 140.845 2.59008C139.956 1.94626 139.655 0.810324 139.531 0.188705C139.509 0.0629023 139.446 0 139.347 0C139.263 0 139.108 0.0999032 138.884 0.296009C138.657 0.495816 137.661 1.54295 137.518 1.75015C137.412 1.91666 137.364 2.06096 137.364 2.18676C137.364 2.66408 137.68 3.1636 138.319 3.68162Z" fill="white"/>
</g>
<defs>
<clipPath id="clip0_278_137">
<rect width="268" height="64" fill="white"/>
</clipPath>
</defs>
</svg>
